<svg width="128" height="78" viewBox="0 0 128 78" fill="none" xmlns="http://www.w3.org/2000/svg">
<path d="M126.776 24.1627C126.489 23.8762 126.202 23.6852 125.725 23.5896C125.343 23.5896 124.961 23.6852 124.579 23.8762C124.292 24.1627 124.101 24.4493 124.006 24.8314C123.719 27.9835 123.05 30.5625 122 32.4728C121.427 33.7145 120.758 34.4787 119.994 34.9563C119.23 35.4339 118.275 35.5294 117.319 35.2428C116.555 35.0518 115.887 34.3832 115.218 33.3325C114.74 32.3773 114.358 31.04 114.263 29.3207C128.399 8.49779 124.197 2.09809 124.197 2.09809C120.376 -5.92542 114.072 11.6499 114.072 11.6499C112.83 15.3751 111.97 19.1003 111.493 22.921C111.397 23.5896 111.302 24.1627 111.302 24.7359C111.111 25.4045 110.633 26.5507 110.155 28.079C109.678 29.7983 109.2 31.2311 108.723 32.2818C108.054 33.7145 107.385 34.6697 106.812 35.2428C106.239 35.8159 105.475 36.1025 104.806 35.8159C101.081 34.2877 103.278 25.4045 103.278 25.4045C103.947 23.112 103.183 22.5389 103.183 22.5389C103.374 20.5331 100.604 19.0048 100.604 19.0048C98.5023 17.8586 96.5919 18.0496 94.586 19.4824C93.1533 20.6286 92.0071 22.3479 91.0519 24.7359C90.9564 25.0224 90.8608 25.2134 90.7653 25.5C90.5743 25.8821 90.4788 26.2641 90.2877 26.7417C89.3326 29.9893 88.1863 32.0907 88.1863 32.0907C87.0401 34.5742 85.7984 36.2935 84.4611 35.9115C81.8821 35.2428 82.6463 31.3266 82.6463 31.3266L84.8432 21.2972C84.8432 21.0107 84.9387 20.8196 84.9387 20.6286C84.9387 20.151 84.8432 19.8644 84.6522 19.5779C84.1746 19.0048 83.6015 18.8137 82.7418 18.8137C80.8314 18.8137 77.6794 18.1451 77.6794 18.1451C76.3421 17.8586 75.96 19.6734 75.96 19.6734L73.381 28.4611C72.8079 29.9893 72.2348 31.4221 71.5662 32.5683C70.8021 33.9056 70.0379 34.8608 69.2738 35.1473C68.7007 35.4339 68.032 35.3384 67.3634 34.6697C67.0769 34.3832 66.8858 33.7145 66.7903 32.5683C66.6948 31.5176 66.6948 30.1804 66.8858 28.4611C66.9813 27.3148 67.1724 25.8821 67.5545 24.1627C67.841 22.5389 67.9365 21.4882 68.032 21.1062V20.8196V20.7241V20.6286L67.841 20.0555C67.5544 19.5779 67.1724 19.2913 66.5993 19.2913C66.1217 19.2913 65.7396 19.4824 65.453 19.7689C65.262 19.96 65.1665 20.0555 65.1665 20.2465C65.1665 20.342 65.071 20.4375 65.071 20.5331C64.9755 20.7241 64.8799 21.2017 64.7844 21.8703C64.4024 24.0672 64.2113 25.2134 64.2113 25.309C63.6382 27.7924 63.0651 29.7983 62.3965 31.4221C61.3458 33.7145 60.2951 34.8608 59.0533 35.0518C58.3847 35.1473 57.8116 34.8608 57.5251 34.0966C57.0475 33.1414 56.8564 31.7087 56.8564 29.7028C56.8564 26.5507 57.334 23.5896 58.0982 20.5331C58.1937 20.151 58.1937 19.7689 58.0026 19.3868C57.8116 19.0048 57.5251 18.8137 57.143 18.7182C56.7609 18.6227 56.3788 18.6227 55.9968 18.8137C55.6147 19.0048 55.4237 19.2913 55.3281 19.6734C54.9461 21.1062 54.6595 22.6345 54.4685 24.0672C53.7043 28.079 52.6536 31.1356 51.4119 33.3325C50.1702 35.3383 49.1195 36.1025 47.9733 35.7204C47.4957 35.5294 47.0181 35.0518 46.636 34.3832C46.2539 33.7145 45.9674 32.7594 45.7763 31.5176C45.3943 28.27 45.7763 23.5896 47.0181 17.572C48.6419 17.4765 50.2657 17.2854 52.0805 16.9034C52.4626 16.8079 52.7491 16.6168 53.0357 16.2348C53.2267 15.8527 53.3223 15.4706 53.2267 15.0885C53.1312 14.7065 52.9402 14.4199 52.5581 14.1334C52.176 13.9423 51.8895 13.8468 51.4119 13.9423C50.0746 14.2289 48.8329 14.4199 47.6867 14.5154C48.2598 11.7454 49.0239 8.87987 49.9791 5.91881C50.0746 5.53674 50.0746 5.15466 49.8836 4.77259C49.6926 4.39052 49.406 4.19949 49.0239 4.10397C48.5464 4.58156 48.1643 4.67708 47.8777 4.86811C47.4957 5.05915 47.3046 5.3457 47.2091 5.72777C46.2539 9.0709 45.3943 12.223 44.7256 15.1841C43.5794 15.0885 42.3377 14.8975 41.0004 14.6109C40.6184 14.5154 40.2363 14.5154 39.8542 14.802C39.4721 14.993 39.2811 15.2796 39.1856 15.7572C39.0901 16.1392 39.1856 16.5213 39.3766 16.9034C39.5677 17.2854 39.8542 17.4765 40.3318 17.572C41.6691 17.8586 42.9108 18.1451 44.1525 18.2406C43.6749 20.6286 43.2929 22.8255 43.1018 24.8314C42.9108 25.4045 42.4332 26.6462 41.8601 28.4611C41.3825 30.1804 40.9049 31.6132 40.4273 32.6638C39.7587 34.0966 39.0901 35.0518 38.517 35.6249C37.9439 36.198 37.1797 36.4846 36.5111 36.198C32.5949 34.3832 34.7918 25.5955 34.7918 25.5955C35.4604 23.3031 34.6963 22.73 34.6963 22.73C34.8873 20.7241 32.1173 19.1958 32.1173 19.1958C30.0159 18.0496 28.1055 18.2406 26.0996 19.6734C24.6669 20.8196 23.5206 22.5389 22.5655 24.9269C22.0879 26.0731 21.8013 27.1238 21.5148 28.27C19.1268 36.5801 15.2106 36.198 15.2106 36.198C12.6316 36.1025 13.1092 30.3714 13.1092 30.3714C13.1092 30.0849 13.1092 29.2252 13.2047 27.6969C13.3002 26.1686 13.3002 25.1179 13.3002 24.4493C13.3002 23.3986 13.1092 22.5389 13.0137 21.8703C12.7271 20.8196 12.345 20.151 11.6764 19.6734C10.4347 18.7182 9.00191 18.9093 7.47362 20.2465C6.70948 20.9151 5.84981 21.9658 4.89463 23.4941C4.89463 23.112 4.89463 22.73 4.99015 22.3479C5.08567 20.6286 3.6529 20.8196 3.6529 20.8196C2.12461 20.8196 2.12461 22.1569 2.12461 22.1569C1.74254 25.309 1.36047 28.5566 0.882878 31.8042L0.0232162 36.4846C-0.16782 38.0129 0.882878 38.2039 0.882878 38.2039C2.88876 38.6815 2.98427 36.7711 2.98427 36.7711C3.27083 35.3384 3.55738 33.8101 3.84394 32.2818C3.93945 31.8997 4.03497 31.6131 4.03497 31.4221C4.22601 30.9445 4.51256 30.0849 5.08567 28.8431C5.65878 27.6014 6.3274 26.4552 6.99603 25.2134C7.85569 23.8762 8.61984 22.921 9.28846 22.3479C10.4347 21.5838 10.3392 24.4493 10.3392 24.4493C10.3392 25.1179 10.3392 26.1686 10.2436 27.6014C10.2436 29.0342 10.1481 29.8938 10.1481 30.1804C10.1481 32.7594 10.3392 34.7652 10.8167 36.007C11.1988 37.0577 11.6764 37.8218 12.4406 38.2994C13.3002 38.8725 14.2554 39.1591 15.4016 38.968C15.4016 38.968 19.1268 38.777 21.6103 35.2428C21.8013 35.8159 22.0879 36.2935 22.3744 36.6756C23.7117 38.2994 25.24 38.8725 26.9593 38.3949C28.201 38.0129 29.3472 37.0577 30.4935 35.5294C30.78 35.1473 31.1621 34.6697 31.4486 34.1921C31.5442 34.4787 31.6397 34.7652 31.7352 35.0518C32.4038 36.9622 33.6456 38.2039 35.4604 38.6815C37.1797 39.1591 38.708 38.777 40.1408 37.5353C41.1915 36.6756 42.0511 35.3384 42.8153 33.5235C42.8153 33.5235 42.8153 33.428 42.9108 33.3325C43.1018 34.4787 43.4839 35.4339 44.057 36.389C44.8212 37.6308 45.6808 38.3949 46.827 38.8725C48.0688 39.3501 49.3105 39.2546 50.5522 38.586C51.794 37.9173 52.8447 36.7711 53.7999 35.2428C53.9909 34.8608 54.1819 34.4787 54.373 34.1921C54.4685 34.6697 54.6595 35.1473 54.8505 35.6249C55.8057 37.7263 57.334 38.586 59.4354 38.2039C61.2503 37.9173 62.7785 36.6756 64.1158 34.6697C64.4024 35.7204 64.7844 36.5801 65.453 37.1532C67.0769 38.6815 68.8917 39.0636 70.7065 38.1084C71.9483 37.4397 73.19 36.198 74.2407 34.2877C75.0049 32.9504 75.769 31.3266 76.3421 29.6073L78.6345 21.4882C79.7807 21.6793 80.927 21.8703 82.0732 21.9658L79.9718 31.2311C79.9718 31.2311 78.8256 35.9115 81.7866 38.1084C82.6463 38.777 83.6015 39.1591 84.7477 39.1591C86.8491 39.0636 88.6639 37.6308 90.0967 35.1473C90.2877 35.8159 90.5743 36.389 90.9564 36.8666C92.2936 38.4904 93.9174 39.0636 95.5412 38.586C96.783 38.2039 97.9292 37.2487 99.0754 35.7204C99.3619 35.3384 99.744 34.8608 100.031 34.3832C100.126 34.6697 100.222 34.9563 100.317 35.2428C100.986 37.1532 102.227 38.3949 104.042 38.8725C105.762 39.3501 107.29 38.968 108.723 37.7263C109.773 36.8666 110.633 35.5294 111.397 33.7145C111.493 33.428 111.684 33.1414 111.779 32.8549C111.97 33.619 112.352 34.3832 112.639 34.9563C113.69 36.7711 114.931 37.8218 116.364 38.2994C118.275 38.8725 119.994 38.586 121.618 37.6308C122.859 36.8666 123.91 35.6249 124.674 34.0011C125.82 31.7087 126.585 28.8431 126.967 25.4045C127.158 24.9269 127.062 24.5448 126.776 24.1627ZM31.4486 28.8431C28.01 38.3949 24.7624 34.8608 24.7624 34.8608C24.7624 34.8608 21.9924 33.3325 25.3355 25.8821C25.3355 25.8821 27.4369 20.6286 30.3024 21.3927C30.3024 21.4882 33.7411 22.4434 31.4486 28.8431ZM100.031 28.8431C96.5919 38.3949 93.3443 34.8608 93.3443 34.8608C93.3443 34.8608 90.5743 33.3325 93.9174 25.8821C93.9174 25.8821 96.0188 20.6286 98.8843 21.3927C98.8843 21.4882 102.323 22.4434 100.031 28.8431ZM113.881 23.4941C114.263 20.151 115.027 16.8079 115.982 13.4647C116.555 11.5544 117.128 9.83505 117.797 8.59331C118.275 7.63813 118.657 6.87399 119.134 6.30088C119.516 5.82329 119.803 5.53674 119.994 5.53674C120.185 5.53674 120.28 5.53674 120.28 5.63226C120.471 5.82329 120.471 6.10985 120.567 6.58744C120.758 7.54262 120.662 8.59331 120.376 9.83505C119.039 15.5661 116.842 20.6286 113.785 25.0224C113.785 24.4493 113.785 23.9717 113.881 23.4941Z" fill="black"/>
<path d="M18.6492 61.9879C19.3178 62.1789 19.9865 62.3699 20.6551 62.752C21.3237 63.1341 21.8968 63.6117 22.3744 64.0893C22.852 64.6624 23.3296 65.2355 23.6161 65.9996C23.9027 66.7638 24.0937 67.5279 24.0937 68.3876C24.0937 69.9159 23.8072 71.2531 23.1385 72.3038C22.4699 73.3545 21.7058 74.2142 20.6551 74.8828C19.6044 75.5514 18.4582 76.029 17.1209 76.3156C15.7837 76.6021 14.4464 76.6976 13.0136 76.6976H0.0231934V48.2333H11.7719C12.9181 48.2333 14.1599 48.3288 15.4971 48.5198C16.8344 48.7109 17.9806 48.9974 19.1268 49.5705C20.273 50.0481 21.1327 50.8123 21.8968 51.863C22.661 52.9137 22.9475 54.1554 22.9475 55.7792C22.9475 57.3075 22.5654 58.5492 21.8013 59.5999C21.0372 60.5551 19.9865 61.3192 18.7447 61.7968V61.9879H18.6492ZM8.90637 55.6837V59.2178H11.4854C12.154 59.2178 12.7271 59.0268 13.1092 58.7403C13.4912 58.4537 13.7778 57.9761 13.7778 57.3075C13.7778 56.7344 13.5867 56.3523 13.1092 56.0658C12.6316 55.7792 12.0585 55.6837 11.2943 55.6837H8.90637ZM8.90637 65.331V69.1517H11.7719C12.536 69.1517 13.1092 68.9607 13.5867 68.6741C14.0643 68.2921 14.2554 67.8145 14.2554 67.2414C14.2554 66.8593 14.1599 66.5727 13.9688 66.2862C13.7778 65.9996 13.4912 65.8086 13.2047 65.7131C12.9181 65.522 12.6316 65.4265 12.2495 65.4265C11.8674 65.331 11.5809 65.331 11.2943 65.331H8.90637Z" fill="black"/>
<path d="M41.1915 48.2333H31.5442V76.6976H41.1915V48.2333Z" fill="black"/>
<path d="M64.3068 76.7932H54.755V56.3523H47.7822V48.2333H71.2797V56.3523H64.3068V76.7932Z" fill="black"/>
<path d="M77.8704 48.2333H97.4516V56.2568H86.8491V58.6447H96.7829V66.0951H86.8491V68.7696H98.1202V76.7932H77.8704V48.2333Z" fill="black"/>
<path d="M115.027 77.2707C113.881 77.2707 112.734 77.1752 111.684 76.9842C110.633 76.7931 109.487 76.5066 108.532 76.1245C107.481 75.7424 106.526 75.3604 105.666 74.7873C104.806 74.3097 103.947 73.7366 103.278 73.0679L108.914 66.7637C109.582 67.4324 110.442 68.101 111.588 68.6741C112.734 69.2472 113.785 69.4383 114.931 69.4383C115.504 69.4383 115.982 69.3427 116.364 69.1517C116.842 68.9607 117.033 68.5786 117.033 68.101C117.033 67.8144 116.937 67.6234 116.842 67.4324C116.651 67.2413 116.46 67.0503 116.077 66.8593C115.695 66.6682 115.218 66.4772 114.549 66.1906C113.881 65.9996 113.116 65.713 112.066 65.4265C111.111 65.1399 110.155 64.7579 109.296 64.3758C108.436 63.9937 107.672 63.4206 107.003 62.752C106.335 62.0834 105.762 61.4147 105.379 60.4596C104.997 59.5999 104.806 58.5492 104.711 57.3075C104.711 55.5881 104.997 54.0599 105.762 52.8181C106.43 51.5764 107.385 50.6212 108.436 49.7615C109.582 48.9974 110.824 48.4243 112.161 48.0422C113.594 47.6602 114.931 47.4691 116.269 47.4691C118.083 47.4691 119.994 47.7557 121.904 48.4243C123.814 49.0929 125.534 50.1436 126.967 51.4809L121.14 57.4985C120.471 56.7344 119.707 56.1613 118.752 55.6837C117.797 55.3016 117.033 55.1106 116.269 55.1106C115.6 55.1106 115.027 55.2061 114.645 55.3971C114.263 55.5881 113.976 55.9702 113.976 56.3523C113.976 56.7344 114.167 57.1164 114.645 57.3075C115.122 57.4985 115.791 57.7851 116.746 58.0716C117.797 58.3582 118.848 58.7402 119.898 59.1223C121.044 59.5044 122 60.0775 122.955 60.7461C123.91 61.4147 124.674 62.1789 125.343 63.2296C125.916 64.1848 126.298 65.4265 126.298 66.8593C126.298 68.5786 126.011 70.0114 125.343 71.2531C124.674 72.4948 123.814 73.5455 122.764 74.4052C121.713 75.2649 120.471 75.838 119.134 76.3155C117.892 77.0797 116.46 77.2707 115.027 77.2707Z" fill="black"/>
</svg>
